#!OML:ASF G:\JayActor3\Patient Classification 1\Patient 1\Session 6\male.ASF
:FULLY-SPECIFIED
:DEGREES
1412
root -0.215115 15.0582 -2.149 395.161 -78.1661 -375.422
lowerback 37.3719 2.28129 1.43053
upperback 13.3438 1.54728 -2.95629
thorax -3.56964 0.341779 -4.35725
lowerneck 2.00195 11.0113 4.42617
upperneck -39.1123 11.4212 -15.6959
head -11.7542 6.09643 -7.80211
rclavicle -5.56597e-014 2.06736e-014
rhumerus -3.20909 25.7419 -71.8
rradius 111.888
rwrist 12.3102
rhand -46.3008 6.65701
rfingers 7.12502
rthumb -19.035 -22.4315
lclavicle -5.56597e-014 2.06736e-014
lhumerus 17.9789 -46.0425 64.276
lradius 94.4838
lwrist 12.1405
lhand -8.1839 12.3199
lfingers 7.12502
lthumb 17.7319 41.5314
rfemur -67.8552 -15.6349 30.3011
rtibia 74.9957
rfoot -19.5173 -17.8115
rtoes -12.7796
lfemur -61.3271 7.79179 -20.0914
ltibia 61.0726
lfoot -19.2736 0.40798
ltoes 2.48864
1413
root -0.223062 15.0516 -2.16458 394.706 -78.158 -374.994
lowerback 37.4609 2.29443 1.42132
upperback 13.4327 1.54651 -2.9637
thorax -3.50141 0.33966 -4.36017
lowerneck 1.99718 10.9628 4.40482
upperneck -38.9102 11.3989 -15.5887
head -11.6836 6.08517 -7.73372
rclavicle 1.74931e-014 2.95195e-014
rhumerus -3.20813 25.5616 -71.7604
rradius 111.909
rwrist 12.2613
rhand -46.3273 6.60363
rfingers 7.12502
rthumb -19.0605 -22.4824
lclavicle 1.74931e-014 2.95195e-014
lhumerus 18.2214 -45.7008 63.9622
lradius 94.5711
lwrist 12.1253
lhand -8.19409 12.3991
lfingers 7.12502
lthumb 17.7221 41.6115
rfemur -67.5395 -15.5638 30.3054
rtibia 74.7487
rfoot -20.1978 -17.9127
rtoes -12.414
lfemur -61.3221 7.80792 -20.1202
ltibia 61.1484
lfoot -19.3077 0.364019
ltoes 2.38344
1414
root -0.230915 15.046 -2.1803 394.243 -78.162 -374.559
lowerback 37.569 2.31131 1.40135
upperback 13.5197 1.54572 -2.97139
thorax -3.44172 0.336787 -4.35802
lowerneck 1.96975 10.8937 4.37926
upperneck -38.7461 11.3393 -15.4745
head -11.6307 6.05276 -7.66349
rclavicle -2.06736e-014 -6.75868e-015
rhumerus -3.21774 25.4023 -71.7141
rradius 111.934
rwrist 12.2085
rhand -46.3508 6.5505
rfingers 7.12502
rthumb -19.0831 -22.5333
lclavicle -2.06736e-014 -6.75868e-015
lhumerus 18.4588 -45.3187 63.6879
lradius 94.6434
lwrist 12.0919
lhand -8.18127 12.5223
lfingers 7.12502
lthumb 17.7344 41.7336
rfemur -67.2616 -15.4576 30.2598
rtibia 74.5358
rfoot -20.7763 -18.0316
rtoes -12.0628
lfemur -61.3027 7.82824 -20.155
ltibia 61.2115
lfoot -19.3423 0.330577
ltoes 2.27408
1415
root -0.238903 15.0414 -2.19586 393.803 -78.1726 -374.15
lowerback 37.6969 2.32752 1.37461
upperback 13.5987 1.5418 -2.97666
thorax -3.39757 0.331698 -4.34904
lowerneck 1.94411 10.8092 4.35558
upperneck -38.6375 11.2496 -15.3616
head -11.6049 6.00275 -7.59978
rclavicle -6.44062e-014 3.07122e-014
rhumerus -3.23716 25.2733 -71.6665
rradius 111.951
rwrist 12.1652
rhand -46.347 6.51169
rfingers 7.12502
rthumb -19.0794 -22.5725
lclavicle -6.44062e-014 3.07122e-014
lhumerus 18.6621 -44.8959 63.4726
lradius 94.6983
lwrist 12.043
lhand -8.16989 12.6824
lfingers 7.12502
lthumb 17.7454 41.8927
rfemur -67.0085 -15.3292 30.1875
rtibia 74.338
rfoot -21.2826 -18.1752
rtoes -11.6831
lfemur -61.2703 7.85583 -20.1888
ltibia 61.2638
lfoot -19.3777 0.303429
ltoes 2.16185
1416
root -0.247202 15.0379 -2.21079 393.379 -78.1793 -373.759
lowerback 37.8419 2.33573 1.34703
upperback 13.6675 1.52883 -2.97519
thorax -3.37064 0.321725 -4.32967
lowerneck 1.91852 10.7126 4.3233
upperneck -38.5834 11.1355 -15.243
head -11.6063 5.93837 -7.53807
rclavicle -3.69739e-014 -2.27608e-014
rhumerus -3.26379 25.1847 -71.616
rradius 111.949
rwrist 12.1438
rhand -46.3304 6.47839
rfingers 7.12502
rthumb -19.0635 -22.6074
lclavicle -3.69739e-014 -2.27608e-014
lhumerus 18.8156 -44.4373 63.3275
lradius 94.7331
lwrist 11.9825
lhand -8.25865 12.8517
lfingers 7.12502
lthumb 17.66 42.0697
rfemur -66.7696 -15.209 30.1121
rtibia 74.1446
rfoot -21.7321 -18.3326
rtoes -11.3016
lfemur -61.2259 7.88537 -20.2214
ltibia 61.3062
lfoot -19.4148 0.273913
ltoes 2.06461
1417
root -0.256127 15.0354 -2.22511 392.984 -78.1695 -373.395
lowerback 37.9927 2.33103 1.32684
upperback 13.7258 1.50474 -2.96415
thorax -3.35781 0.306312 -4.30034
lowerneck 1.89252 10.6035 4.27735
upperneck -38.5811 11.0007 -15.1042
head -11.6348 5.86016 -7.47163
rclavicle 4.21423e-014 4.31363e-014
rhumerus -3.29551 25.1326 -71.5658
rradius 111.916
rwrist 12.1461
rhand -46.2978 6.45169
rfingers 7.12502
rthumb -19.0321 -22.6372
lclavicle 4.21423e-014 4.31363e-014
lhumerus 18.9031 -43.9647 63.2583
lradius 94.7475
lwrist 11.917
lhand -8.54163 12.9882
lfingers 7.12502
lthumb 17.3876 42.2305
rfemur -66.5382 -15.1167 30.0597
rtibia 73.9464
rfoot -22.1594 -18.5022
rtoes -10.9144
lfemur -61.18 7.9165 -20.249
ltibia 61.3436
lfoot -19.4504 0.233554
ltoes 1.96001
1418
root -0.265775 15.033 -2.23899 392.619 -78.1418 -373.05
lowerback 38.1362 2.31308 1.31099
upperback 13.7711 1.46891 -2.94523
thorax -3.35743 0.28542 -4.26085
lowerneck 1.85852 10.481 4.22242
upperneck -38.6168 10.8487 -14.9328
head -11.6834 5.76793 -7.39418
rclavicle -4.8901e-014 -1.2921e-014
rhumerus -3.33742 25.1149 -71.5284
rradius 111.847
rwrist 12.1734
rhand -46.2482 6.44041
rfingers 7.12502
rthumb -18.9844 -22.6531
lclavicle -4.8901e-014 -1.2921e-014
lhumerus 18.9118 -43.4961 63.2614
lradius 94.7434
lwrist 11.8627
lhand -9.07761 13.0333
lfingers 7.12502
lthumb 16.8717 42.3204
rfemur -66.3135 -15.0565 30.0422
rtibia 73.7364
rfoot -22.6009 -18.6735
rtoes -10.4599
lfemur -61.1488 7.95067 -20.2737
ltibia 61.382
lfoot -19.479 0.172442
ltoes 1.86943
1419
root -0.27615 15.0303 -2.25257 392.317 -78.0841 -372.75
lowerback 38.2569 2.27774 1.31153
upperback 13.8042 1.42154 -2.91634
thorax -3.36354 0.259829 -4.21512
lowerneck 1.80845 10.342 4.15065
upperneck -38.6789 10.6799 -14.7104
head -11.748 5.66078 -7.29527
rclavicle 2.8625e-014 -4.52235e-014
rhumerus -3.39472 25.1261 -71.5082
rradius 111.745
rwrist 12.2161
rhand -46.1963 6.42204
rfingers 7.12502
rthumb -18.9345 -22.6764
lclavicle 2.8625e-014 -4.52235e-014
lhumerus 18.8305 -43.0509 63.3402
lradius 94.7262
lwrist 11.835
lhand -9.86722 12.9555
lfingers 7.12502
lthumb 16.1115 42.3057
rfemur -66.0991 -15.0318 30.0747
rtibia 73.509
rfoot -23.0718 -18.8497
rtoes -9.94407
lfemur -61.1486 7.9885 -20.2888
ltibia 61.4282
lfoot -19.498 0.081939
ltoes 1.7844
1420
root -0.287113 15.0268 -2.26619 392.084 -78.0008 -372.495
lowerback 38.3418 2.22896 1.32423
upperback 13.8234 1.36657 -2.8796
thorax -3.37367 0.231602 -4.16442
lowerneck 1.747 10.1823 4.07135
upperneck -38.7582 10.4915 -14.4336
head -11.8251 5.53616 -7.174
rclavicle 2.74323e-014 -2.72335e-014
rhumerus -3.47603 25.1612 -71.5098
rradius 111.613
rwrist 12.2575
rhand -46.1387 6.39276
rfingers 7.12502
rthumb -18.8791 -22.7111
lclavicle 2.74323e-014 -2.72335e-014
lhumerus 18.6534 -42.6508 63.4907
lradius 94.7049
lwrist 11.8637
lhand -10.796 12.8341
lfingers 7.12502
lthumb 15.217 42.2544
rfemur -65.9049 -15.0308 30.1549
rtibia 73.264
rfoot -23.5772 -19.0303
rtoes -9.37776
lfemur -61.1938 8.0339 -20.297
ltibia 61.4869
lfoot -19.5033 -0.0416793
ltoes 1.72
1421
root -0.298635 15.0224 -2.28034 391.904 -77.8984 -372.262
lowerback 38.3824 2.17374 1.34124
upperback 13.8303 1.30993 -2.83399
thorax -3.38327 0.203391 -4.10559
lowerneck 1.67726 9.99914 3.97682
upperneck -38.8506 10.2794 -14.1008
head -11.9146 5.39347 -7.02779
rclavicle 0 2.0773e-014
rhumerus -3.5833 25.2108 -71.531
rradius 111.461
rwrist 12.2824
rhand -46.0748 6.3462
rfingers 7.12502
rthumb -18.8176 -22.7636
lclavicle 0 2.0773e-014
lhumerus 18.3921 -42.2974 63.7088
lradius 94.6821
lwrist 11.9335
lhand -11.8009 12.6738
lfingers 7.12502
lthumb 14.2489 42.165
rfemur -65.7405 -15.04 30.2708
rtibia 73.0081
rfoot -24.1144 -19.2128
rtoes -8.75219
lfemur -61.2886 8.09015 -20.3044
ltibia 61.5579
lfoot -19.4971 -0.199295
ltoes 1.68269
1422
root -0.310456 15.0176 -2.295 391.786 -77.7828 -372.059
lowerback 38.3783 2.11423 1.36136
upperback 13.8233 1.25367 -2.78113
thorax -3.39379 0.176187 -4.04049
lowerneck 1.60286 9.78984 3.87046
upperneck -38.9433 10.0431 -13.7062
head -12.0117 5.23205 -6.85338
rclavicle -3.26007e-014 -7.14631e-014
rhumerus -3.71739 25.2769 -71.5697
rradius 111.297
rwrist 12.284
rhand -46.016 6.26855
rfingers 7.12502
rthumb -18.7611 -22.8467
lclavicle -3.26007e-014 -7.14631e-014
lhumerus 18.0483 -41.9886 63.9901
lradius 94.6635
lwrist 12.0439
lhand -12.7043 12.5811
lfingers 7.12502
lthumb 13.3782 42.1315
rfemur -65.6146 -15.0473 30.4145
rtibia 72.7529
rfoot -24.6567 -19.4044
rtoes -8.11274
lfemur -61.4298 8.15713 -20.3106
ltibia 61.6376
lfoot -19.4788 -0.382358
ltoes 1.65885
1423
root -0.322623 15.0125 -2.31042 391.715 -77.6568 -371.88
lowerback 38.3383 2.05357 1.37972
upperback 13.8038 1.19944 -2.7187
thorax -3.40658 0.150311 -3.96481
lowerneck 1.53001 9.55642 3.74359
upperneck -39.0313 9.78507 -13.2527
head -12.1149 5.05528 -6.65019
rclavicle 2.10712e-014 -6.36111e-015
rhumerus -3.86952 25.3589 -71.6164
rradius 111.128
rwrist 12.2537
rhand -45.9389 6.17777
rfingers 7.12502
rthumb -18.6869 -22.9447
lclavicle 2.10712e-014 -6.36111e-015
lhumerus 17.6324 -41.7166 64.328
lradius 94.6512
lwrist 12.1757
lhand -13.4352 12.5921
lfingers 7.12502
lthumb 12.6736 42.1876
rfemur -65.524 -15.0461 30.576
rtibia 72.5107
rfoot -25.1935 -19.6003
rtoes -7.47402
lfemur -61.6048 8.2297 -20.3114
ltibia 61.7219
lfoot -19.4491 -0.587705
ltoes 1.66291
1424
root -0.334881 15.0074 -2.32623 391.613 -77.5333 -371.654
lowerback 38.278 1.99251 1.38606
upperback 13.7714 1.14326 -2.65365
thorax -3.42732 0.123542 -3.87938
lowerneck 1.47152 9.30688 3.60775
upperneck -39.111 9.51152 -12.7693
head -12.2205 4.86928 -6.43159
rclavicle 5.1684e-014 1.73937e-014
rhumerus -4.03347 25.4606 -71.6694
rradius 110.958
rwrist 12.1976
rhand -45.8636 6.08735
rfingers 7.12502
rthumb -18.6145 -23.042
lclavicle 5.1684e-014 1.73937e-014
lhumerus 17.1563 -41.464 64.7121
lradius 94.6462
lwrist 12.2979
lhand -13.9583 12.7001
lfingers 7.12502
lthumb 12.1693 42.3261
rfemur -65.4681 -15.035 30.7243
rtibia 72.295
rfoot -25.7047 -19.7914
rtoes -6.85316
lfemur -61.7959 8.30102 -20.3252
ltibia 61.8026
lfoot -19.4113 -0.801979
ltoes 1.68787
